# xmcd
# 
# Track frame offsets:
#     150
#     33450
#     66125
#     98443
#     134743
#     234010
# 
# Disc length: 3446
# 
# Revision: 0
# Processed by: cddbd v1.5.2PL0 Copyright (c) Steve Scherf et al.
# Submitted via: fre:ac v1.0.17
# 
DISCID=450d7406
DTITLE=Satya Singh - Sunrise Soundcurrent
DYEAR=2006
DGENRE=New Age
TTITLE0=Wha Yanti Kar Yanti
TTITLE1=Mul Mantra
TTITLE2=Sat Siri Akal
TTITLE3=Rakhe Rakhanehare
TTITLE4=Wahe Guru Wahe Jio
TTITLE5=Guru Ram Das
EXTD=Six mantras for the transition to Aquarius given by Yogi Bhajan
EXTT0=
EXTT1=
EXTT2=
EXTT3=
EXTT4=
EXTT5=
PLAYORDER=
